<?xml version="1.0" encoding="UTF-8"?> <!-- Generator: Adobe Illustrator 25.4.1, SVG Export Plug-In . SVG Version: 6.00 Build 0) --> <svg xmlns="http://www.w3.org/2000/svg" xmlns:xlink="http://www.w3.org/1999/xlink" version="1.1" x="0px" y="0px" viewBox="0 0 348.5 243.1" style="enable-background:new 0 0 348.5 243.1;" xml:space="preserve"> <g id="Guides"> </g> <g id="BCK"> </g> <g id="TXT"> <g> <path d="M166.8,185.6c-0.6,0.5-1.4,0.5-2.2,0.5h-4.4v3.6h-0.8v-8.1h5.4c0.7,0,1.4,0,2,0.5c0.2,0.1,0.3,0.3,0.4,0.4 c0.2,0.2,0.4,0.7,0.4,1.3C167.6,184.2,167.6,185,166.8,185.6z M166.2,182.6c-0.4-0.3-0.8-0.3-1.3-0.3h-4.7v3.2h4.1 c0.7,0,1.5,0,2-0.5c0.2-0.2,0.4-0.5,0.4-1.1C166.8,183.7,166.8,183,166.2,182.6z"></path> <path d="M175,189.7v-0.8c-0.1,0.1-0.3,0.3-0.5,0.4c-0.4,0.2-1.1,0.6-2.3,0.6c-1,0-2.3-0.2-2.7-1.3c-0.1-0.3-0.2-0.6-0.2-1.4v-3.2 h0.8v3.1c0,0.5,0,1,0.4,1.4c0.3,0.3,0.9,0.6,1.9,0.6c0.8,0,2.1-0.2,2.6-0.9c0.2-0.3,0.2-0.5,0.2-0.8v-3.4h0.7v5.7H175z"></path> <path d="M183.7,188.9c-1,0.9-2.3,0.9-2.7,0.9c-0.2,0-0.7,0-1.3-0.2c-0.6-0.2-2.1-0.9-2.1-2.8c0-0.4,0-1.2,0.7-2 c0.7-0.7,1.8-1.1,2.8-1.1c0.5,0,1.9,0.1,2.9,1.2c0.2,0.2,0.3,0.3,0.4,0.6l-0.8,0.3c-0.1-0.2-0.3-0.5-0.7-0.8c0,0-0.2-0.2-0.4-0.3 c-0.3-0.2-0.8-0.4-1.6-0.4c-0.1,0-0.3,0-0.6,0.1c-1,0.2-1.5,0.7-1.7,1.1c-0.1,0.2-0.3,0.6-0.3,1.2c0,0.2,0,0.7,0.3,1.1 c0.6,1.2,2,1.2,2.4,1.2c0.7,0,1.6-0.3,2.1-0.8c0.4-0.4,0.5-0.7,0.6-0.9l0.8,0.3C184.3,188.2,184.1,188.6,183.7,188.9z"></path> <path d="M192.6,188.5c-0.4,0.6-1.4,1.4-3.1,1.4c-0.2,0-0.5,0-0.9-0.1c-0.4-0.1-1.5-0.3-2.2-1.3c-0.4-0.7-0.5-1.3-0.5-1.6 c0-0.2,0-0.6,0.2-1c0.4-1,1.2-1.4,1.5-1.6c0.3-0.2,1.1-0.4,2-0.4c0.3,0,1.5,0,2.4,0.8c0.9,0.8,1.1,1.9,1.1,2.3 C193,187.2,193,187.9,192.6,188.5z M192,185.9c-0.6-1.3-2.2-1.4-2.6-1.4c-0.2,0-1,0.1-1.7,0.5c-0.3,0.2-1,0.8-1,1.9 c0,0.2,0,0.9,0.5,1.4c0.5,0.7,1.4,0.9,2.2,0.9c0.3,0,1.5,0,2.2-0.9c0.5-0.6,0.5-1.2,0.5-1.5C192.2,186.5,192.1,186.2,192,185.9z M189.5,183.4H189l0.9-1.7h1.3L189.5,183.4z"></path> <path d="M200.7,189.7v-3.3c0-0.5-0.1-0.9-0.5-1.2c-0.3-0.3-1-0.6-2-0.6c-0.9,0-1.4,0.2-1.7,0.4c-0.2,0.2-0.5,0.3-0.6,0.6 c-0.2,0.3-0.2,0.7-0.2,0.8v3.3h-0.8v-5.7h0.8l0,0.8c0-0.1,0.3-0.3,0.5-0.4c0.4-0.2,1.1-0.5,2.2-0.5c0.2,0,0.6,0,1.2,0.1 c0.3,0.1,1.3,0.3,1.7,1.2c0.2,0.4,0.2,0.9,0.2,1.4v3.1H200.7z"></path> </g> <g> <path d="M54.2,189.8v-8.1H55v7.4h5.9v0.7H54.2z"></path> <path d="M68.5,188.5c-0.4,0.6-1.4,1.4-3.1,1.4c-0.2,0-0.5,0-0.9-0.1c-0.4-0.1-1.5-0.3-2.2-1.3c-0.4-0.7-0.5-1.3-0.5-1.6 c0-0.2,0-0.6,0.2-1c0.4-1,1.2-1.4,1.5-1.6c0.3-0.2,1.1-0.4,2-0.4c0.3,0,1.5,0,2.4,0.8c0.9,0.8,1.1,1.9,1.1,2.3 C69,187.3,69,187.9,68.5,188.5z M67.9,185.9c-0.6-1.3-2.2-1.4-2.6-1.4c-0.2,0-1,0.1-1.7,0.5c-0.3,0.2-1,0.8-1,1.9 c0,0.2,0,0.9,0.5,1.4c0.5,0.7,1.4,0.9,2.2,0.9c0.3,0,1.5,0,2.2-0.9c0.5-0.6,0.5-1.2,0.5-1.5C68.2,186.6,68.1,186.2,67.9,185.9z"></path> <path d="M76.1,189.4c-0.4,0.3-1.1,0.5-2.2,0.5c-1.7,0-2.6-0.4-3.1-1c-0.1-0.1-0.2-0.2-0.2-0.3c0,0-0.1-0.2-0.1-0.2l0.8-0.2 c0,0.1,0.1,0.1,0.1,0.2c0.2,0.2,0.4,0.4,0.7,0.5c0.3,0.1,0.9,0.3,1.7,0.3c0.1,0,1.2,0,1.8-0.4c0.1-0.1,0.4-0.3,0.4-0.7 c0-0.1,0-0.3-0.2-0.4c-0.2-0.3-0.7-0.3-1.4-0.4c-1.4-0.1-2.3-0.1-2.9-0.3c-0.3-0.1-0.9-0.4-0.9-1.3c0-0.3,0.1-1,0.9-1.4 c0.4-0.2,1-0.4,2-0.4c0.6,0,1.4,0.1,2,0.3c0.2,0.1,0.4,0.2,0.6,0.3c0.3,0.2,0.4,0.4,0.5,0.7l-0.8,0.2c0-0.1-0.1-0.2-0.2-0.3 c-0.5-0.4-1.5-0.5-2.1-0.5c-0.5,0-1.4,0.1-1.8,0.5c-0.2,0.2-0.2,0.4-0.2,0.6c0,0.2,0.1,0.5,0.5,0.7c0.2,0.1,0.6,0.1,1.1,0.1 c1.4,0.1,2.3,0.1,2.9,0.4c0.2,0.1,0.8,0.5,0.8,1.3C76.9,188.4,76.7,188.9,76.1,189.4z"></path> <path d="M90.7,189.8l-3.2-3.6h-3.7v3.6H83v-8.1h5.6c0.2,0,0.4,0,0.6,0c0.3,0,1.3,0.1,1.9,0.9c0.3,0.5,0.4,1.1,0.4,1.3 c0,0.3-0.1,1.2-0.8,1.7c-0.6,0.4-1.3,0.5-2.1,0.5l3.3,3.6H90.7z M89.9,182.6c-0.4-0.3-0.9-0.3-1.3-0.3h-4.9v3.1h4.4 c0.2,0,0.4,0,0.5,0c0.7,0,1.4-0.1,1.7-0.8c0.1-0.1,0.2-0.4,0.2-0.8C90.5,183.6,90.5,182.9,89.9,182.6z"></path> <path d="M93.5,183.1V182h0.8v1.1H93.5z M93.5,189.8v-5.7h0.8v5.7H93.5z"></path> <path d="M101.6,189.4c-0.4,0.3-1.1,0.5-2.2,0.5c-1.7,0-2.6-0.4-3.1-1c-0.1-0.1-0.2-0.2-0.2-0.3c0,0-0.1-0.2-0.1-0.2l0.8-0.2 c0,0.1,0.1,0.1,0.1,0.2c0.2,0.2,0.4,0.4,0.7,0.5c0.3,0.1,0.9,0.3,1.7,0.3c0.1,0,1.2,0,1.8-0.4c0.1-0.1,0.4-0.3,0.4-0.7 c0-0.1,0-0.3-0.2-0.4c-0.2-0.3-0.7-0.3-1.4-0.4c-1.4-0.1-2.3-0.1-2.9-0.3c-0.3-0.1-0.9-0.4-0.9-1.3c0-0.3,0.1-1,0.9-1.4 c0.4-0.2,1-0.4,2-0.4c0.6,0,1.4,0.1,2,0.3c0.2,0.1,0.4,0.2,0.6,0.3c0.3,0.2,0.4,0.4,0.5,0.7l-0.8,0.2c0-0.1-0.1-0.2-0.2-0.3 c-0.5-0.4-1.5-0.5-2.1-0.5c-0.5,0-1.4,0.1-1.8,0.5c-0.2,0.2-0.2,0.4-0.2,0.6c0,0.2,0.1,0.5,0.5,0.7c0.2,0.1,0.6,0.1,1.1,0.1 c1.4,0.1,2.3,0.1,2.9,0.4c0.2,0.1,0.8,0.5,0.8,1.3C102.4,188.4,102.3,188.9,101.6,189.4z"></path> <path d="M110,189c-1,0.9-2.3,0.9-2.7,0.9c-0.2,0-0.7,0-1.3-0.2c-0.6-0.2-2.1-0.9-2.1-2.8c0-0.4,0-1.2,0.7-2 c0.7-0.7,1.8-1.1,2.8-1.1c0.5,0,1.9,0.1,2.9,1.2c0.2,0.2,0.3,0.3,0.4,0.6L110,186c-0.1-0.2-0.3-0.5-0.7-0.8c0,0-0.2-0.2-0.4-0.3 c-0.3-0.2-0.8-0.4-1.6-0.4c-0.1,0-0.3,0-0.6,0.1c-1,0.2-1.5,0.7-1.7,1.1c-0.1,0.2-0.3,0.6-0.3,1.2c0,0.2,0,0.7,0.3,1.1 c0.6,1.2,2,1.2,2.4,1.2c0.7,0,1.6-0.3,2.1-0.8c0.4-0.4,0.5-0.7,0.6-0.9l0.8,0.3C110.6,188.2,110.3,188.6,110,189z"></path> <path d="M118.8,188.5c-0.4,0.6-1.4,1.4-3.1,1.4c-0.2,0-0.5,0-0.9-0.1c-0.4-0.1-1.5-0.3-2.2-1.3c-0.4-0.7-0.5-1.3-0.5-1.6 c0-0.2,0-0.6,0.2-1c0.4-1,1.2-1.4,1.5-1.6c0.3-0.2,1.1-0.4,2-0.4c0.3,0,1.5,0,2.4,0.8c0.9,0.8,1.1,1.9,1.1,2.3 C119.3,187.3,119.2,187.9,118.8,188.5z M118.2,185.9c-0.6-1.3-2.2-1.4-2.6-1.4c-0.2,0-1,0.1-1.7,0.5c-0.3,0.2-1,0.8-1,1.9 c0,0.2,0,0.9,0.5,1.4c0.5,0.7,1.4,0.9,2.2,0.9c0.3,0,1.5,0,2.2-0.9c0.5-0.6,0.5-1.2,0.5-1.5C118.4,186.6,118.4,186.2,118.2,185.9z "></path> <path d="M126.4,189.4c-0.4,0.3-1.1,0.5-2.2,0.5c-1.7,0-2.6-0.4-3.1-1c-0.1-0.1-0.2-0.2-0.2-0.3c0,0-0.1-0.2-0.1-0.2l0.8-0.2 c0,0.1,0.1,0.1,0.1,0.2c0.2,0.2,0.4,0.4,0.7,0.5c0.3,0.1,0.9,0.3,1.7,0.3c0.1,0,1.2,0,1.8-0.4c0.1-0.1,0.4-0.3,0.4-0.7 c0-0.1,0-0.3-0.2-0.4c-0.2-0.3-0.7-0.3-1.4-0.4c-1.4-0.1-2.3-0.1-2.9-0.3c-0.3-0.1-0.9-0.4-0.9-1.3c0-0.3,0.1-1,0.9-1.4 c0.4-0.2,1-0.4,2-0.4c0.6,0,1.4,0.1,2,0.3c0.2,0.1,0.4,0.2,0.6,0.3c0.3,0.2,0.4,0.4,0.5,0.7l-0.8,0.2c0-0.1-0.1-0.2-0.2-0.3 c-0.5-0.4-1.5-0.5-2.1-0.5c-0.5,0-1.4,0.1-1.8,0.5c-0.2,0.2-0.2,0.4-0.2,0.6c0,0.2,0.1,0.5,0.5,0.7c0.2,0.1,0.6,0.1,1.1,0.1 c1.4,0.1,2.3,0.1,2.9,0.4c0.2,0.1,0.8,0.5,0.8,1.3C127.1,188.4,127,188.9,126.4,189.4z"></path> </g> <g> <path d="M233.7,189.7v-8.1h0.8v8.1H233.7z"></path> <path d="M243.5,189.7l-3.4-3.6l-3.1,3.6h-1l3.6-4.2l-3.7-4h1l3.2,3.4l3-3.4h1l-3.4,4l3.9,4.2H243.5z"></path> <path d="M257.8,189.7l-3.2-3.6h-3.7v3.6H250v-8.1h5.6c0.2,0,0.4,0,0.6,0c0.3,0,1.3,0.1,1.9,0.9c0.3,0.5,0.4,1.1,0.4,1.3 c0,0.3-0.1,1.2-0.8,1.7c-0.6,0.4-1.3,0.5-2.1,0.5l3.3,3.6H257.8z M257,182.6c-0.4-0.3-0.9-0.3-1.3-0.3h-4.9v3.1h4.4 c0.2,0,0.4,0,0.5,0c0.7,0,1.4-0.1,1.7-0.8c0.1-0.1,0.2-0.4,0.2-0.8C257.6,183.6,257.6,182.9,257,182.6z"></path> <path d="M265.5,189.3c-0.3,0.2-1.1,0.6-2.1,0.6c-0.3,0-1.2,0-2.1-0.6c-0.8-0.6-1.3-1.5-1.3-2.5c0-0.8,0.3-1.6,0.9-2.1 c0.3-0.3,1.1-0.8,2.3-0.8c0.4,0,1.6,0.1,2.6,1c0.1,0.1,0.4,0.4,0.6,0.9c0.1,0.3,0.2,0.6,0.3,1.2h-5.9c0.1,1.5,1.3,2.2,2.7,2.2 c0.5,0,1.6-0.1,2.3-1.1c0.1-0.1,0.1-0.2,0.2-0.3l0.6,0.4C266.4,188.4,266.1,188.9,265.5,189.3z M264.7,184.9 c-0.3-0.2-0.8-0.4-1.6-0.4c-0.6,0-1.2,0.1-1.7,0.6c-0.3,0.3-0.4,0.5-0.5,0.7c-0.1,0.2-0.1,0.3-0.2,0.6h4.9 C265.6,185.7,265.2,185.3,264.7,184.9z"></path> <path d="M274.6,190.5c-0.4,1.2-1.7,1.4-2,1.5c-0.2,0-0.6,0.1-1.1,0.1c-0.1,0-1.4,0-2.2-0.5c-0.4-0.3-0.7-0.7-0.8-1.1 c0-0.1,0-0.2,0-0.3h0.8c0,0.3,0.1,0.7,0.7,0.9c0.2,0.1,0.8,0.3,1.5,0.3c0.2,0,0.7,0,1.3-0.1c0.4-0.1,0.8-0.3,1-0.6 c0.3-0.4,0.3-0.9,0.3-1.8c0,0.1-0.2,0.3-0.4,0.4c-0.4,0.3-1.1,0.7-2.3,0.7c-0.5,0-1-0.1-1.5-0.3c-0.6-0.3-1.8-1-1.8-2.8 c0-0.4,0-1.1,0.7-1.9c0.7-0.8,1.6-1,2-1.1c0.1,0,0.4-0.1,0.8-0.1c0.3,0,1.4,0,2.2,0.7c0.2,0.1,0.3,0.3,0.3,0.3l0-0.8h0.7v5.1 C274.7,189.3,274.8,189.9,274.6,190.5z M273.3,185.1c-0.3-0.2-1-0.6-1.9-0.6c-1.4,0-2.5,0.9-2.5,2.4c0,0.5,0.1,0.8,0.2,1 c0.6,1.3,2,1.3,2.3,1.3c0.7,0,1.5-0.2,2-0.7c0.3-0.3,0.6-0.8,0.6-1.7C274,185.9,273.7,185.4,273.3,185.1z"></path> <path d="M276.9,183v-1.1h0.8v1.1H276.9z M276.9,189.7v-5.7h0.8v5.7H276.9z"></path> <path d="M286.3,188.5c-0.4,0.6-1.4,1.4-3.1,1.4c-0.2,0-0.5,0-0.9-0.1c-0.4-0.1-1.5-0.3-2.2-1.3c-0.4-0.7-0.5-1.3-0.5-1.6 c0-0.2,0-0.6,0.2-1c0.4-1,1.2-1.4,1.5-1.6c0.3-0.2,1.1-0.4,2-0.4c0.3,0,1.5,0,2.4,0.8c0.9,0.8,1.1,1.9,1.1,2.3 C286.7,187.2,286.7,187.9,286.3,188.5z M285.7,185.9c-0.6-1.3-2.2-1.4-2.6-1.4c-0.2,0-1,0.1-1.7,0.5c-0.3,0.2-1,0.8-1,1.9 c0,0.2,0,0.9,0.5,1.4c0.5,0.7,1.4,0.9,2.2,0.9c0.3,0,1.5,0,2.2-0.9c0.5-0.6,0.5-1.2,0.5-1.5C285.9,186.5,285.8,186.2,285.7,185.9z M283.2,183.4h-0.5l0.9-1.7h1.3L283.2,183.4z"></path> <path d="M294.4,189.7v-3.3c0-0.5-0.1-0.9-0.5-1.2c-0.3-0.3-1-0.6-2-0.6c-0.9,0-1.4,0.2-1.7,0.4c-0.2,0.2-0.5,0.3-0.6,0.6 c-0.2,0.3-0.2,0.7-0.2,0.8v3.3h-0.8v-5.7h0.8l0,0.8c0-0.1,0.3-0.3,0.5-0.4c0.4-0.2,1.1-0.5,2.2-0.5c0.2,0,0.6,0,1.2,0.1 c0.3,0.1,1.3,0.3,1.7,1.2c0.2,0.4,0.2,0.9,0.2,1.4v3.1H294.4z"></path> </g> <circle cx="142.5" cy="186.5" r="1.4"></circle> <circle cx="215.9" cy="186.5" r="1.4"></circle> <g> <path d="M59.8,90.5h-6.7v-7.7L67.3,81l-7.5,4c1.2-13.4,6-19.8,10.6-23.8c6.5-5.7,13.6-7.9,20.8-7.9c6.9,0,13.6,2.2,15.1,9.2 c0,5-3.3,8.8-8.9,8.8c-4.3,0-7.9-2.9-11.3-10.3L84.4,57l12-2.7l0.7,3.4c-0.8-0.9-2.3-1.6-3.7-1.6c-4.2,0-7.1,3.6-8.4,5.6 c-3.6,5.8-3.7,14.1-2.9,26.5v25.8c0,8.2,0.1,16.4,0.4,24.5H59.5c0.2-8.2,0.4-16.4,0.4-24.5V90.5z M90.6,132.7v6H54.3v-6l10.9-2.3 h15.7L90.6,132.7z M92.8,81.7v8.8H71.1v-8.8H92.8z"></path> <path d="M123.9,120c0,6.1,2.1,7.9,5.1,7.9c4.1,0,9.6-5.4,12.2-9.9h5.3v8.4h-8.3l3.6-4c-5.1,11-12.9,18-23.3,18 c-10.3,0-17.3-5.6-17.1-21l0.5-31.7l4.2,4.3l-10.3-2.3v-5.3l26.5-4.1l2.1,1.3l-0.6,16.6V120z M137.2,140l-0.7-13.8l0.5-38.6 l4.2,4.4l-9.8-2.3v-4.7l25.8-4.7l2.1,1.3L159,98.3v40.3l-9.7-9l15.1,3.2v6L137.2,140z"></path> <path d="M213.3,149.3c0-2.7-1.9-5.7-7.4-5.7h-11.7c-6.3,0-11.6-0.6-15.1-2.3v-0.9c-6-2.1-8.2-6.1-8.2-10.3 c0-6.9,4.9-12.6,11.9-17.9l3.3,2c-1.1,1.8-1.6,3.4-1.6,6.1c0,2.6,2,4.1,6.8,4.1h13c19.9,0,26.2,7.5,26.2,17.9 c0,12.6-12.7,22.4-36.6,22.4c-20.3,0-25.4-6.8-25.4-13.4c0-5.7,4.4-10.4,12.2-12.7l2.1,1.2c-1.6,3.2-2.2,4.4-2.2,7.8 c0,6.7,4.6,9.6,15.8,9.6C207.7,157,213.3,153.7,213.3,149.3z M196.8,79.8c18.5,0,25.8,8.4,25.8,18.8c0,9.8-7.4,18.5-25.8,18.5 S171,108.6,171,98.6C171,88.4,178.4,79.8,196.8,79.8z M190.5,98.4c0,8.2,1.6,12.9,6.3,12.9s6.5-4.7,6.5-12.9s-2.2-12.7-6.5-12.7 S190.5,90.2,190.5,98.4z M229.9,79.5l1.9,1.2v9.7h-16.6v-4.1L229.9,79.5z"></path> <path d="M258.1,105.3c4.8-1.3,13.4-3.5,18.8-4.9v5.1c-5.6,1.5-11.7,3-15.1,4.7c-3.3,1.5-7.6,5.3-7.6,11.6c0,5.7,2.7,8.5,6.1,8.5 c1.5,0,3.2-0.7,5.5-2.5l5.6-4.2l1.1,1.4l-5.5,6.1c-5.1,5.6-8.7,9.4-17.7,9.4c-9.2,0-15.2-5.5-15.2-15.1 C234.1,116.4,239.1,110.3,258.1,105.3z M265.2,129.5V99.2c0-9.9-1.5-13.1-8.9-13.1c-2.9,0-5.7,0.4-11.1,1.5l9.4-4.9v7.4 c0,9.5-4.6,13.1-9.6,13.1c-4.6,0-7.7-2.1-8.9-6.3c0-10.1,9.7-17.1,28.5-17.1c16.1,0,22.1,6.7,22.1,22.7v26.8c0,1.2,0.7,2,2,2 c0.9,0,1.8-0.5,3.2-2.6l3.4,1.9c-2.8,7.1-7.4,9.9-15.7,9.9C271.1,140.5,266.6,136.5,265.2,129.5z"></path> </g> </g> </svg> 